<mxfile host="app.diagrams.net" modified="2023-09-24T07:23:06.431Z" agent="Mozilla/5.0 (X11; Linux x86_64) AppleWebKit/537.36 (KHTML, like Gecko) Chrome/110.0.0.0 YaBrowser/23.3.1.906 (beta) Yowser/2.5 Safari/537.36" version="21.8.1" etag="AxLzS3ThW3JzN8KL-sYM" type="github">
  <diagram name="Страница — 1" id="czl2-oIv3n9uK1DeGApC">
    <mxGraphModel>
      <root>
        <mxCell id="0" />
        <mxCell id="1" parent="0" />
      </root>
    </mxGraphModel>
  </diagram>
</mxfile>
